# xmcd
#
# Track frame offsets: 
#        150
#        25218
#        43683
#        73749
#        94326
#        116331
#        141435
#        176277
#
# Disc length: 2603 seconds
#
# Revision: 2
# Processed by: cddbd v1.5.2PL0 Copyright (c) Steve Scherf et al.
# Submitted via: ExactAudioCopy v1.1
#
DISCID=6c0a2908
DTITLE=Leonard Cohen - Live In Dublin [CD3)
DYEAR=2014
DGENRE=Folk/Rock
TTITLE0=So Long, Marianne
TTITLE1=Going Home
TTITLE2=First We Take Manhatten
TTITLE3=Famous Blue Raincoat
TTITLE4=If It Be Your Will
TTITLE5=Closing Time
TTITLE6=I Tried To Leave You
TTITLE7=Save The Last Dance For Me
EXTD=
EXTT0=
EXTT1=
EXTT2=
EXTT3=
EXTT4=
EXTT5=
EXTT6=
EXTT7=
PLAYORDER=
